# xmcd
#
# Track frame offsets:
#	150
#	17551
#	37427
#	52653
#	68629
#	83780
#	111006
#	128182
#	144758
#	161034
#	177685
#	196436
#
# Disc length: 2929 seconds
#
# Revision: 0
# Processed by: cddbd v1.5.2PL0 Copyright (c) Steve Scherf et al.
# Submitted via: EasyCDDAExtractor 10.0.3.1
#
DISCID=a20b6f0c
DTITLE=PAT COOLY - REAL THING
DYEAR=2005
DGENRE=Blues
TTITLE0=REAL THING
TTITLE1=money
TTITLE2=prove your love
TTITLE3=nothing left to say
TTITLE4=oo wee
TTITLE5=kansa city
TTITLE6=ian`t going where you go
TTITLE7=love ain`t here no more
TTITLE8=if it ain`t broke
TTITLE9=i can,t sleep with you
TTITLE10=warm hug
TTITLE11=a change is gonna come
EXTD=
EXTT0=
EXTT1=
EXTT2=
EXTT3=
EXTT4=
EXTT5=
EXTT6=
EXTT7=
EXTT8=
EXTT9=
EXTT10=
EXTT11=
PLAYORDER=
